<?xml version="1.0" standalone="no"?>
<!DOCTYPE svg PUBLIC "-//W3C//DTD SVG 20010904//EN"
 "http://www.w3.org/TR/2001/REC-SVG-20010904/DTD/svg10.dtd">
<svg version="1.0" xmlns="http://www.w3.org/2000/svg"
 width="2640.000000pt" height="2640.000000pt" viewBox="0 0 2640.000000 2640.000000"
 preserveAspectRatio="xMidYMid meet">
<metadata>
Created by potrace 1.14, written by Peter Selinger 2001-2017
</metadata>
<g transform="translate(0.000000,2640.000000) scale(0.100000,-0.100000)"
fill="#000000" stroke="none">
<path d="M12760 26394 c-444 -20 -730 -41 -1065 -79 -2634 -298 -5119 -1389
-7130 -3130 -339 -293 -743 -684 -1045 -1010 -1919 -2070 -3119 -4681 -3435
-7470 -62 -548 -79 -882 -79 -1505 0 -623 17 -957 79 -1505 315 -2787 1514
-5397 3430 -7465 301 -325 713 -724 1050 -1015 2011 -1741 4496 -2832 7130
-3130 548 -62 882 -79 1505 -79 623 0 957 17 1505 79 2787 315 5397 1515 7465
3430 175 162 586 573 740 740 1896 2058 3091 4669 3405 7440 62 548 79 882 79
1505 0 623 -17 957 -79 1505 -298 2634 -1389 5119 -3130 7130 -291 337 -690
749 -1015 1050 -1844 1708 -4126 2852 -6583 3300 -532 97 -1021 155 -1642 195
-157 11 -1038 21 -1185 14z m715 -2974 c787 -42 1493 -223 2181 -559 591 -289
1054 -620 1519 -1085 460 -461 787 -916 1070 -1491 304 -617 474 -1207 552
-1915 13 -127 18 -245 18 -510 l0 -345 -33 -95 c-48 -139 -100 -220 -211 -331
-85 -84 -109 -102 -201 -148 -149 -72 -206 -86 -375 -86 -116 0 -154 4 -218
23 -236 68 -430 233 -532 455 -60 131 -66 165 -75 487 -11 370 -35 580 -97
855 -159 711 -515 1367 -1028 1894 -523 536 -1158 903 -1880 1085 -345 87
-556 111 -965 111 -409 0 -620 -24 -965 -111 -961 -242 -1794 -831 -2339
-1654 -124 -187 -184 -292 -275 -481 -219 -455 -342 -920 -381 -1439 -6 -82
-10 -756 -10 -1717 l0 -1583 4733 0 c3053 0 4766 -4 4827 -10 462 -48 831
-363 957 -815 l28 -100 0 -4710 0 -4710 -27 -98 c-31 -112 -97 -257 -158 -346
-173 -256 -464 -432 -775 -470 -128 -16 -11102 -16 -11230 0 -311 38 -602 214
-775 470 -61 89 -127 234 -158 346 l-27 98 0 4710 0 4710 28 100 c75 270 241
498 471 647 126 81 250 128 433 164 l22 4 4 1733 c3 1568 5 1746 20 1877 87
729 251 1293 552 1905 283 575 610 1030 1070 1491 465 465 928 796 1519 1085
851 415 1798 609 2731 559z"/>
<path d="M10715 10860 c-1364 -538 -2486 -982 -2493 -987 -8 -5 111 -57 337
-146 l350 -138 -15 -34 c-19 -45 -17 -75 6 -164 20 -76 27 -224 13 -304 -5
-31 -13 -42 -42 -57 -82 -42 -125 -115 -126 -215 0 -82 20 -130 76 -183 l36
-35 -15 -66 c-22 -97 -78 -253 -123 -343 -49 -97 -96 -173 -221 -355 -111
-161 -164 -258 -177 -326 -8 -47 -5 -94 9 -102 4 -2 112 -21 241 -40 197 -31
251 -36 344 -32 135 6 219 32 276 87 47 44 49 65 19 208 -10 54 -33 196 -50
317 -17 121 -42 297 -56 390 -14 94 -28 187 -31 207 -5 34 -3 38 35 57 79 40
122 116 122 215 0 80 -35 153 -93 196 l-41 30 -1 167 c-1 122 -6 183 -18 222
-17 57 -11 81 19 81 8 0 934 -363 2059 -806 l2045 -806 2495 983 c1372 541
2491 987 2487 990 -6 6 -4926 1948 -4972 1963 -8 3 -1131 -436 -2495 -974z"/>
<path d="M10540 8137 c0 -560 2 -620 19 -703 91 -442 462 -771 919 -814 145
-14 3299 -14 3444 0 458 44 829 373 919 816 18 86 19 137 17 703 l-3 610
-1328 -524 -1327 -523 -1268 500 c-697 275 -1295 510 -1329 523 l-63 24 0
-612z"/>
</g>
</svg>
